<svg width="120" height="120" viewBox="0 0 120 120" fill="none" xmlns="http://www.w3.org/2000/svg">
<rect width="120" height="120" rx="20" fill="#222228"/>
<circle cx="60" cy="60" r="32" fill="#3A3A42"/>
<path d="M60.0312 43.7617C61.3724 43.7617 62.5964 43.957 63.7031 44.3477C64.8099 44.7383 65.7539 45.2982 66.5352 46.0273C67.3294 46.7435 67.9414 47.6094 68.3711 48.625C68.8138 49.6406 69.0352 50.7669 69.0352 52.0039C69.0352 53.0716 68.8789 54.0612 68.5664 54.9727C68.2539 55.8711 67.8307 56.737 67.2969 57.5703C66.776 58.3906 66.1641 59.1914 65.4609 59.9727C64.7578 60.7409 64.0156 61.5221 63.2344 62.3164L56.7109 68.9766C57.362 68.7943 57.9935 68.651 58.6055 68.5469C59.2174 68.4427 59.8034 68.3906 60.3633 68.3906H67.7852C68.319 68.3906 68.7422 68.5469 69.0547 68.8594C69.3672 69.1589 69.5234 69.5495 69.5234 70.0312V73H49.6797V71.3594C49.6797 71.0208 49.7513 70.6758 49.8945 70.3242C50.0378 69.9596 50.2591 69.6276 50.5586 69.3281L59.3477 60.5195C60.0768 59.7773 60.7279 59.0677 61.3008 58.3906C61.8867 57.7005 62.375 57.0234 62.7656 56.3594C63.1562 55.6953 63.4557 55.0182 63.6641 54.3281C63.8724 53.638 63.9766 52.9154 63.9766 52.1602C63.9766 51.4701 63.8724 50.8646 63.6641 50.3438C63.4688 49.8099 63.1823 49.3672 62.8047 49.0156C62.4401 48.651 61.9974 48.3776 61.4766 48.1953C60.9688 48.013 60.3958 47.9219 59.7578 47.9219C58.5729 47.9219 57.5964 48.2214 56.8281 48.8203C56.0599 49.4193 55.526 50.2266 55.2266 51.2422C55.0703 51.75 54.8424 52.1146 54.543 52.3359C54.2565 52.5573 53.8919 52.668 53.4492 52.668C53.2409 52.668 53.0195 52.6484 52.7852 52.6094L50.1875 52.1406C50.3828 50.7474 50.7669 49.5299 51.3398 48.4883C51.9128 47.4466 52.6289 46.5742 53.4883 45.8711C54.3477 45.168 55.3307 44.6406 56.4375 44.2891C57.5573 43.9375 58.7552 43.7617 60.0312 43.7617Z" fill="white"/>
</svg>
