<svg width="85" height="84" viewBox="0 0 85 84" fill="none" xmlns="http://www.w3.org/2000/svg">
<path d="M27.5784 0.87431L14.4474 9.08116C13.8961 9.42574 13.636 10.0866 13.7569 10.7254C15.8632 21.8582 6.76943 29.9914 1.00666 32.4562C0.413028 32.7101 0 33.2764 0 33.9221V48.9031C0 49.6596 0.566526 50.2936 1.31242 50.4197C14.8563 52.7098 17.0739 62.8921 14.0389 70.3375C13.7653 71.0088 13.9443 71.7934 14.5242 72.2284L27.8372 82.2132C28.4761 82.6923 29.3751 82.582 29.9209 81.999C38.8562 72.4532 49.6675 76.8503 55.068 82.074C55.6288 82.6164 56.5028 82.7081 57.1269 82.2401L70.4758 72.2284C71.0557 71.7934 71.2354 71.0079 70.9503 70.3414C66.1842 59.2003 74.6446 51.1268 83.5022 50.2977C84.327 50.2205 85 49.5557 85 48.7273V33.957C85 33.2945 84.5586 32.7106 83.9277 32.5086C69.9434 28.0292 67.8369 21.437 71.1162 10.7844C71.32 10.1222 71.0633 9.40037 70.4758 9.03316L57.362 0.837033C56.6338 0.381892 55.6761 0.636468 55.2053 1.35469C47.7641 12.7072 34.5479 8.1614 29.8243 1.41407C29.317 0.689395 28.3285 0.405467 27.5784 0.87431Z" fill="#999AA7"/>
<circle cx="42.4995" cy="42.4995" r="15.4545" fill="#1B1B1F"/>
</svg>
