<svg width="65" height="81" viewBox="0 0 65 81" fill="none" xmlns="http://www.w3.org/2000/svg">
<path d="M59.9192 66.5439H5.42625C3.46395 66.5439 2.50441 64.1508 3.92313 62.7952L5.07782 61.6918C9.63691 57.3353 12.1386 51.2524 11.9635 44.949L11.7168 36.0689C11.5306 29.3666 14.3698 22.9363 19.4481 18.5584L24.6501 14.074C26.267 12.6801 27.1967 10.6512 27.1967 8.51647V7.11925C27.1967 3.73968 29.9363 1 33.3159 1C36.6955 1 39.4351 3.73968 39.4351 7.11925V8.51647C39.4351 10.6512 40.3648 12.6801 41.9817 14.074L47.086 18.4742C52.2141 22.895 55.0263 29.4271 54.7132 36.1905L54.2902 45.3273C54.0086 51.4092 56.2259 57.3418 60.4273 61.7482L61.4939 62.8668C62.8143 64.2516 61.8327 66.5439 59.9192 66.5439Z" fill="#884BFD" stroke="#884BFD" stroke-width="1.35983" stroke-linecap="round"/>
<path d="M39.2255 68.9922H27.1354C26.2506 68.9922 25.7359 69.9923 26.2502 70.7124L27.8691 72.9788C30.4723 76.6233 35.8887 76.6233 38.4919 72.9788L40.1108 70.7124C40.6251 69.9923 40.1104 68.9922 39.2255 68.9922Z" fill="#884BFD" stroke="#884BFD" stroke-width="1.35983" stroke-linecap="round"/>
</svg>
